<svg xmlns="http://www.w3.org/2000/svg" xmlns:xlink="http://www.w3.org/1999/xlink" width="572" zoomAndPan="magnify" viewBox="0 0 428.88 245.999995" height="328" preserveAspectRatio="xMidYMid meet" version="1.0"><defs><g/><clipPath id="08dae90921"><path d="M 75.074219 75.132812 L 176.675781 75.132812 L 176.675781 170.871094 L 75.074219 170.871094 Z M 75.074219 75.132812 " clip-rule="nonzero"/></clipPath></defs><g fill="#272a31" fill-opacity="1"><g transform="translate(186.820972, 110.064355)"><g><path d="M 13.234375 -15.96875 L 18.96875 -15.96875 C 18.96875 -21.335938 14.46875 -23.667969 10.300781 -23.667969 C 5.332031 -23.667969 1.132812 -20.601562 1.398438 -15.46875 L 1.398438 -15.5 C 1.832031 -10.132812 6.300781 -9.300781 10.066406 -8.933594 C 10.933594 -8.832031 13.601562 -8.765625 13.601562 -7.101562 C 13.601562 -5.765625 12.101562 -5.234375 10.234375 -5.234375 C 8.933594 -5.234375 7 -5.667969 7 -7.96875 L 1.234375 -7.96875 C 1.234375 -2.035156 6.402344 0.300781 10.199219 0.300781 C 14.632812 0.300781 19.367188 -2.5 19.367188 -7.367188 C 19.367188 -7.867188 19.300781 -8.46875 19.203125 -9 C 18.203125 -13.199219 14.035156 -14.066406 10.734375 -14.5 C 9.96875 -14.566406 7.199219 -14.601562 7.199219 -16.335938 C 7.199219 -17.601562 8.433594 -18.367188 10.199219 -18.367188 C 11.96875 -18.367188 13.234375 -17.535156 13.234375 -15.96875 Z M 13.234375 -15.96875 "/></g></g></g><g fill="#272a31" fill-opacity="1"><g transform="translate(207.685883, 110.064355)"><g><path d="M 13.234375 -15.96875 L 18.96875 -15.96875 C 18.96875 -21.335938 14.46875 -23.667969 10.300781 -23.667969 C 5.332031 -23.667969 1.132812 -20.601562 1.398438 -15.46875 L 1.398438 -15.5 C 1.832031 -10.132812 6.300781 -9.300781 10.066406 -8.933594 C 10.933594 -8.832031 13.601562 -8.765625 13.601562 -7.101562 C 13.601562 -5.765625 12.101562 -5.234375 10.234375 -5.234375 C 8.933594 -5.234375 7 -5.667969 7 -7.96875 L 1.234375 -7.96875 C 1.234375 -2.035156 6.402344 0.300781 10.199219 0.300781 C 14.632812 0.300781 19.367188 -2.5 19.367188 -7.367188 C 19.367188 -7.867188 19.300781 -8.46875 19.203125 -9 C 18.203125 -13.199219 14.035156 -14.066406 10.734375 -14.5 C 9.96875 -14.566406 7.199219 -14.601562 7.199219 -16.335938 C 7.199219 -17.601562 8.433594 -18.367188 10.199219 -18.367188 C 11.96875 -18.367188 13.234375 -17.535156 13.234375 -15.96875 Z M 13.234375 -15.96875 "/></g></g></g><g fill="#272a31" fill-opacity="1"><g transform="translate(228.550795, 110.064355)"><g/></g></g><g fill="#272a31" fill-opacity="1"><g transform="translate(236.916763, 110.064355)"><g><path d="M 10.902344 -23.335938 L 1.632812 -23.335938 L 1.632812 0 L 10.902344 0 C 18.601562 0 22.46875 -5.800781 22.46875 -11.632812 C 22.46875 -17.46875 18.601562 -23.335938 10.902344 -23.335938 Z M 10.902344 -5.433594 L 7.300781 -5.433594 L 7.300781 -17.933594 L 10.902344 -17.933594 C 14.835938 -17.933594 16.835938 -14.699219 16.835938 -11.632812 C 16.835938 -8.566406 14.835938 -5.433594 10.902344 -5.433594 Z M 10.902344 -5.433594 "/></g></g></g><g fill="#272a31" fill-opacity="1"><g transform="translate(260.381456, 110.064355)"><g><path d="M 6.101562 -16.234375 L 6.101562 -23.5 L 0.800781 -23.5 L 0.800781 0 L 6.367188 0 L 6.367188 -9.800781 C 6.367188 -11.96875 8.265625 -13.335938 9.835938 -13.335938 C 11.265625 -13.335938 12.601562 -12.300781 12.601562 -9.902344 L 12.601562 0 L 17.902344 0 L 17.902344 -9.933594 C 17.96875 -14.433594 16.535156 -18.234375 11.402344 -18.300781 C 9.46875 -18.300781 7.402344 -17.835938 6.101562 -16.234375 Z M 6.101562 -16.234375 "/></g></g></g><g fill="#272a31" fill-opacity="1"><g transform="translate(280.613092, 110.064355)"><g><path d="M 9.199219 -18.335938 C 3.332031 -18.335938 0.464844 -14.199219 0.464844 -9.265625 C 0.464844 -4.300781 3.433594 0.234375 9.132812 0.234375 C 10.867188 0.234375 12.632812 -0.265625 13.867188 -1.800781 L 13.867188 0 L 19.101562 0 L 19.101562 -18.035156 L 13.867188 -18.035156 L 13.867188 -16.167969 C 12.699219 -17.667969 10.96875 -18.335938 9.199219 -18.335938 Z M 9.765625 -4.800781 C 7.101562 -4.800781 5.734375 -6.96875 5.734375 -9.132812 C 5.734375 -11.335938 7.066406 -13.5 9.765625 -13.5 C 12.035156 -13.5 13.867188 -11.535156 13.867188 -9.132812 C 13.867188 -6.734375 12.035156 -4.800781 9.765625 -4.800781 Z M 9.765625 -4.800781 "/></g></g></g><g fill="#272a31" fill-opacity="1"><g transform="translate(302.044625, 110.064355)"><g><path d="M 10.835938 -9.066406 L 16.933594 -17.769531 L 16.933594 -18.035156 L 11.199219 -18.035156 L 6.234375 -10.933594 L 6.234375 -23.335938 L 1 -23.335938 L 1 0 L 6.234375 0 L 6.234375 -7.035156 L 11.402344 0 L 17.535156 0 L 17.535156 -0.234375 Z M 10.835938 -9.066406 "/></g></g></g><g fill="#272a31" fill-opacity="1"><g transform="translate(320.676389, 110.064355)"><g><path d="M 9.199219 -18.335938 C 3.332031 -18.335938 0.464844 -14.199219 0.464844 -9.265625 C 0.464844 -4.300781 3.433594 0.234375 9.132812 0.234375 C 10.867188 0.234375 12.632812 -0.265625 13.867188 -1.800781 L 13.867188 0 L 19.101562 0 L 19.101562 -18.035156 L 13.867188 -18.035156 L 13.867188 -16.167969 C 12.699219 -17.667969 10.96875 -18.335938 9.199219 -18.335938 Z M 9.765625 -4.800781 C 7.101562 -4.800781 5.734375 -6.96875 5.734375 -9.132812 C 5.734375 -11.335938 7.066406 -13.5 9.765625 -13.5 C 12.035156 -13.5 13.867188 -11.535156 13.867188 -9.132812 C 13.867188 -6.734375 12.035156 -4.800781 9.765625 -4.800781 Z M 9.765625 -4.800781 "/></g></g></g><g fill="#272a31" fill-opacity="1"><g transform="translate(186.820972, 154.061971)"><g><path d="M 4.5625 -9.984375 C 5.84375 -9.984375 7 -9.644531 8.03125 -8.96875 L 7.34375 -7.5 C 6.332031 -8.113281 5.363281 -8.421875 4.4375 -8.421875 C 3.9375 -8.421875 3.539062 -8.328125 3.25 -8.140625 C 2.957031 -7.960938 2.8125 -7.707031 2.8125 -7.375 C 2.8125 -7.050781 2.941406 -6.769531 3.203125 -6.53125 C 3.472656 -6.300781 3.804688 -6.128906 4.203125 -6.015625 C 4.597656 -5.910156 5.023438 -5.773438 5.484375 -5.609375 C 5.953125 -5.453125 6.382812 -5.28125 6.78125 -5.09375 C 7.1875 -4.90625 7.515625 -4.613281 7.765625 -4.21875 C 8.023438 -3.832031 8.15625 -3.363281 8.15625 -2.8125 C 8.15625 -1.9375 7.804688 -1.238281 7.109375 -0.71875 C 6.421875 -0.195312 5.523438 0.0625 4.421875 0.0625 C 3.660156 0.0625 2.925781 -0.078125 2.21875 -0.359375 C 1.507812 -0.648438 0.894531 -1.035156 0.375 -1.515625 L 1.09375 -2.96875 C 1.59375 -2.5 2.140625 -2.140625 2.734375 -1.890625 C 3.335938 -1.640625 3.910156 -1.515625 4.453125 -1.515625 C 5.035156 -1.515625 5.488281 -1.617188 5.8125 -1.828125 C 6.144531 -2.046875 6.3125 -2.34375 6.3125 -2.71875 C 6.3125 -3.0625 6.175781 -3.347656 5.90625 -3.578125 C 5.644531 -3.804688 5.316406 -3.972656 4.921875 -4.078125 C 4.523438 -4.191406 4.09375 -4.328125 3.625 -4.484375 C 3.164062 -4.640625 2.738281 -4.804688 2.34375 -4.984375 C 1.945312 -5.160156 1.613281 -5.441406 1.34375 -5.828125 C 1.082031 -6.210938 0.953125 -6.679688 0.953125 -7.234375 C 0.953125 -8.066406 1.28125 -8.734375 1.9375 -9.234375 C 2.601562 -9.734375 3.476562 -9.984375 4.5625 -9.984375 Z M 4.5625 -9.984375 "/></g></g></g><g fill="#272a31" fill-opacity="1"><g transform="translate(198.923697, 154.061971)"><g><path d="M 9.734375 -9.921875 L 9.734375 -4.109375 C 9.734375 -2.816406 9.347656 -1.796875 8.578125 -1.046875 C 7.816406 -0.296875 6.765625 0.078125 5.421875 0.078125 C 4.085938 0.078125 3.035156 -0.296875 2.265625 -1.046875 C 1.492188 -1.796875 1.109375 -2.816406 1.109375 -4.109375 L 1.109375 -9.921875 L 2.78125 -9.921875 L 2.78125 -4.109375 C 2.78125 -3.273438 3.015625 -2.617188 3.484375 -2.140625 C 3.960938 -1.671875 4.613281 -1.4375 5.4375 -1.4375 C 6.25 -1.4375 6.890625 -1.671875 7.359375 -2.140625 C 7.828125 -2.609375 8.0625 -3.265625 8.0625 -4.109375 L 8.0625 -9.921875 Z M 9.734375 -9.921875 "/></g></g></g><g fill="#272a31" fill-opacity="1"><g transform="translate(213.038113, 154.061971)"><g><path d="M 11.796875 0 L 10.25 0 L 10.234375 -7.40625 L 7.09375 -1.03125 L 6.015625 -1.03125 L 2.875 -7.40625 L 2.875 0 L 1.296875 0 L 1.296875 -9.921875 L 3.28125 -9.921875 L 6.5625 -3.328125 L 9.828125 -9.921875 L 11.796875 -9.921875 Z M 11.796875 0 "/></g></g></g><g fill="#272a31" fill-opacity="1"><g transform="translate(229.433385, 154.061971)"><g><path d="M 11.796875 0 L 10.25 0 L 10.234375 -7.40625 L 7.09375 -1.03125 L 6.015625 -1.03125 L 2.875 -7.40625 L 2.875 0 L 1.296875 0 L 1.296875 -9.921875 L 3.28125 -9.921875 L 6.5625 -3.328125 L 9.828125 -9.921875 L 11.796875 -9.921875 Z M 11.796875 0 "/></g></g></g><g fill="#272a31" fill-opacity="1"><g transform="translate(245.828657, 154.061971)"><g><path d="M 2.96875 0 L 1.296875 0 L 1.296875 -9.921875 L 2.96875 -9.921875 Z M 2.96875 0 "/></g></g></g><g fill="#272a31" fill-opacity="1"><g transform="translate(253.397989, 154.061971)"><g><path d="M 8.078125 -8.421875 L 4.9375 -8.421875 L 4.9375 0 L 3.265625 0 L 3.265625 -8.421875 L 0.125 -8.421875 L 0.125 -9.921875 L 8.078125 -9.921875 Z M 8.078125 -8.421875 "/></g></g></g><g fill="#272a31" fill-opacity="1"><g transform="translate(264.891531, 154.061971)"><g/></g></g><g fill="#272a31" fill-opacity="1"><g transform="translate(271.837514, 154.061971)"><g><path d="M 4.078125 -9.984375 C 5.023438 -9.984375 5.785156 -9.753906 6.359375 -9.296875 C 6.941406 -8.847656 7.234375 -8.25 7.234375 -7.5 C 7.234375 -6.625 6.628906 -5.535156 5.421875 -4.234375 L 2.84375 -1.5 L 7.6875 -1.5 L 7.6875 0 L 0.640625 0 L 0.640625 -1.21875 L 4.296875 -5.140625 C 5.097656 -5.960938 5.5 -6.664062 5.5 -7.25 C 5.5 -7.644531 5.351562 -7.957031 5.0625 -8.1875 C 4.769531 -8.414062 4.363281 -8.53125 3.84375 -8.53125 C 2.945312 -8.53125 2.046875 -8.113281 1.140625 -7.28125 L 0.46875 -8.578125 C 1.625 -9.515625 2.828125 -9.984375 4.078125 -9.984375 Z M 4.078125 -9.984375 "/></g></g></g><g fill="#272a31" fill-opacity="1"><g transform="translate(283.458562, 154.061971)"><g><path d="M 4.90625 -9.96875 C 6.257812 -9.96875 7.296875 -9.535156 8.015625 -8.671875 C 8.742188 -7.804688 9.109375 -6.566406 9.109375 -4.953125 C 9.109375 -3.347656 8.742188 -2.113281 8.015625 -1.25 C 7.296875 -0.382812 6.257812 0.046875 4.90625 0.046875 C 3.539062 0.046875 2.492188 -0.382812 1.765625 -1.25 C 1.046875 -2.113281 0.6875 -3.347656 0.6875 -4.953125 C 0.6875 -6.566406 1.046875 -7.804688 1.765625 -8.671875 C 2.492188 -9.535156 3.539062 -9.96875 4.90625 -9.96875 Z M 4.90625 -8.640625 C 3.226562 -8.640625 2.390625 -7.410156 2.390625 -4.953125 C 2.390625 -2.503906 3.226562 -1.28125 4.90625 -1.28125 C 6.5625 -1.28125 7.390625 -2.503906 7.390625 -4.953125 C 7.390625 -7.410156 6.5625 -8.640625 4.90625 -8.640625 Z M 4.90625 -8.640625 "/></g></g></g><g fill="#272a31" fill-opacity="1"><g transform="translate(296.538794, 154.061971)"><g><path d="M 4.078125 -9.984375 C 5.023438 -9.984375 5.785156 -9.753906 6.359375 -9.296875 C 6.941406 -8.847656 7.234375 -8.25 7.234375 -7.5 C 7.234375 -6.625 6.628906 -5.535156 5.421875 -4.234375 L 2.84375 -1.5 L 7.6875 -1.5 L 7.6875 0 L 0.640625 0 L 0.640625 -1.21875 L 4.296875 -5.140625 C 5.097656 -5.960938 5.5 -6.664062 5.5 -7.25 C 5.5 -7.644531 5.351562 -7.957031 5.0625 -8.1875 C 4.769531 -8.414062 4.363281 -8.53125 3.84375 -8.53125 C 2.945312 -8.53125 2.046875 -8.113281 1.140625 -7.28125 L 0.46875 -8.578125 C 1.625 -9.515625 2.828125 -9.984375 4.078125 -9.984375 Z M 4.078125 -9.984375 "/></g></g></g><g fill="#272a31" fill-opacity="1"><g transform="translate(308.159841, 154.061971)"><g><path d="M 3.71875 -5.796875 L 4.21875 -5.734375 C 5.070312 -5.660156 5.75 -5.390625 6.25 -4.921875 C 6.757812 -4.453125 7.015625 -3.835938 7.015625 -3.078125 C 7.015625 -2.140625 6.6875 -1.378906 6.03125 -0.796875 C 5.375 -0.210938 4.5 0.078125 3.40625 0.078125 C 2.800781 0.078125 2.195312 -0.0195312 1.59375 -0.21875 C 0.988281 -0.414062 0.476562 -0.675781 0.0625 -1 L 0.75 -2.359375 C 1.488281 -1.671875 2.332031 -1.328125 3.28125 -1.328125 C 3.9375 -1.328125 4.445312 -1.476562 4.8125 -1.78125 C 5.1875 -2.09375 5.375 -2.507812 5.375 -3.03125 C 5.375 -3.5625 5.191406 -3.960938 4.828125 -4.234375 C 4.460938 -4.515625 3.945312 -4.65625 3.28125 -4.65625 L 1.90625 -4.65625 L 1.90625 -5.640625 L 4.484375 -8.421875 L 0.515625 -8.421875 L 0.515625 -9.90625 L 6.546875 -9.90625 L 6.546875 -8.859375 Z M 3.71875 -5.796875 "/></g></g></g><g clip-path="url(#08dae90921)"><path fill="#ec5242" d="M 176.632812 118.972656 C 176.636719 118.933594 176.628906 118.898438 176.617188 118.867188 C 176.617188 118.863281 176.617188 118.863281 176.617188 118.859375 L 166.492188 92.363281 C 166.492188 92.359375 166.488281 92.359375 166.484375 92.355469 C 166.46875 92.316406 166.445312 92.28125 166.410156 92.253906 L 144.144531 74.601562 C 144.109375 74.574219 144.066406 74.554688 144.023438 74.546875 C 144.019531 74.546875 144.015625 74.546875 144.011719 74.546875 L 125.839844 72.082031 C 125.800781 72.078125 125.765625 72.082031 125.730469 72.089844 L 117.066406 74.542969 L 116.820312 74.542969 C 116.773438 74.542969 116.726562 74.554688 116.683594 74.582031 L 116.464844 74.714844 L 95.144531 80.75 C 95.136719 80.753906 95.132812 80.761719 95.125 80.761719 C 95.097656 80.773438 95.070312 80.789062 95.046875 80.808594 C 95.039062 80.816406 95.027344 80.824219 95.019531 80.832031 C 95.015625 80.835938 95.011719 80.839844 95.003906 80.84375 L 76.335938 104.996094 C 76.328125 105.003906 76.328125 105.011719 76.324219 105.019531 C 76.316406 105.03125 76.308594 105.039062 76.304688 105.050781 C 76.300781 105.058594 76.300781 105.066406 76.296875 105.074219 C 76.292969 105.089844 76.289062 105.105469 76.289062 105.117188 C 76.285156 105.128906 76.28125 105.136719 76.28125 105.144531 L 75.105469 126.386719 C 75.105469 126.402344 75.105469 126.421875 75.109375 126.441406 L 76.828125 137.183594 C 76.832031 137.199219 76.839844 137.210938 76.84375 137.222656 C 76.847656 137.234375 76.847656 137.242188 76.851562 137.25 C 76.851562 137.253906 76.851562 137.253906 76.855469 137.257812 C 76.855469 137.261719 76.855469 137.261719 76.855469 137.265625 L 85.546875 153.765625 C 85.5625 153.792969 85.582031 153.816406 85.609375 153.839844 L 95.800781 162.820312 C 95.820312 162.839844 95.835938 162.855469 95.859375 162.871094 L 107.644531 170.789062 C 107.679688 170.808594 107.714844 170.824219 107.753906 170.828125 L 126.25 173.695312 L 126.253906 173.695312 C 126.269531 173.699219 126.28125 173.699219 126.296875 173.699219 C 126.316406 173.699219 126.332031 173.695312 126.351562 173.695312 C 126.351562 173.695312 126.351562 173.695312 126.351562 173.691406 C 126.351562 173.691406 126.355469 173.691406 126.355469 173.691406 C 126.355469 173.691406 126.359375 173.691406 126.359375 173.691406 C 126.359375 173.691406 126.363281 173.691406 126.363281 173.691406 C 126.363281 173.691406 126.367188 173.691406 126.367188 173.691406 C 126.367188 173.691406 126.367188 173.6875 126.367188 173.6875 C 126.367188 173.6875 126.367188 173.6875 126.371094 173.6875 L 156.59375 164.886719 C 156.601562 164.882812 156.609375 164.871094 156.621094 164.867188 C 156.648438 164.855469 156.671875 164.835938 156.695312 164.816406 C 156.703125 164.804688 156.71875 164.804688 156.730469 164.792969 L 175.117188 140.628906 C 175.144531 140.589844 175.15625 140.542969 175.164062 140.5 C 175.164062 140.492188 175.167969 140.492188 175.167969 140.484375 Z M 174.652344 140.257812 L 166.699219 142.261719 L 175.996094 120.503906 Z M 142.382812 137.175781 L 113.082031 126.898438 L 135.183594 111.039062 Z M 135.183594 110.183594 L 113.144531 95.816406 L 141.796875 87.648438 Z M 134.867188 110.613281 L 112.78125 126.464844 L 112.78125 96.214844 Z M 112.246094 126.554688 L 87.179688 114.292969 L 112.246094 96.242188 Z M 117.675781 155.953125 L 93.78125 142.605469 L 112.335938 127.46875 Z M 112.859375 127.382812 L 142.222656 137.679688 L 118.226562 155.988281 Z M 142.546875 138.101562 L 144.09375 159.996094 L 118.703125 156.289062 Z M 142.886719 136.992188 L 135.699219 110.902344 L 160.144531 113.339844 Z M 160.484375 113.773438 L 165.90625 142.304688 L 143.230469 137.421875 Z M 166.34375 141.742188 L 160.980469 113.535156 L 176.015625 119.105469 Z M 160.523438 112.511719 L 142.804688 87.667969 L 165.914062 92.660156 Z M 160.078125 112.800781 L 135.683594 110.371094 L 142.292969 87.859375 Z M 112.863281 95.347656 L 117.011719 75.199219 L 141.453125 87.195312 Z M 112.3125 95.375 L 93.566406 89.128906 L 116.4375 75.347656 Z M 111.9375 95.808594 L 87.097656 113.695312 L 93.125 89.542969 Z M 86.515625 113.839844 L 76.933594 105.152344 L 92.449219 90.042969 Z M 92.695312 89.058594 L 79.066406 102.332031 L 94.59375 82.246094 Z M 86.347656 114.40625 L 77.335938 135.871094 L 76.824219 105.769531 Z M 86.59375 115.195312 L 92.941406 142.242188 L 77.449219 136.980469 Z M 87.050781 114.820312 L 112.023438 127.039062 L 93.472656 142.171875 Z M 117.351562 156.378906 L 96.226562 162.308594 L 93.644531 143.140625 Z M 117.898438 156.777344 L 125.773438 172.964844 L 96.878906 162.675781 Z M 126.394531 173.03125 L 118.5 156.796875 L 143.699219 160.472656 Z M 144.613281 159.777344 L 143.066406 137.925781 L 165.644531 142.789062 Z M 165.558594 143.546875 L 156.375 164.296875 L 144.917969 160.214844 Z M 166.4375 142.875 L 174.234375 140.910156 L 157.675781 162.667969 Z M 160.953125 112.957031 L 166.289062 93.316406 L 175.910156 118.5 Z M 144.175781 75.304688 L 165.183594 91.960938 L 142.488281 87.054688 Z M 125.820312 72.613281 L 140.042969 74.542969 L 119.015625 74.542969 Z M 143.667969 75.074219 L 141.976562 86.863281 L 117.964844 75.074219 Z M 93.371094 88.625 L 95.433594 81.222656 L 114.734375 75.753906 Z M 75.636719 126.386719 L 76.40625 112.515625 L 76.761719 133.398438 Z M 85.996094 153.472656 L 78.941406 140.085938 L 94.289062 160.78125 Z M 77.8125 137.667969 L 93.066406 142.847656 L 95.601562 161.65625 Z M 97.902344 163.605469 L 123.558594 172.742188 L 107.894531 170.3125 Z M 144.425781 160.601562 L 155.65625 164.605469 L 127.6875 172.753906 Z M 144.425781 160.601562 " fill-opacity="1" fill-rule="nonzero"/></g><g fill="#ec5242" fill-opacity="1"><g transform="translate(86.060132, 145.493698)"><g><path d="M 29.128906 -34.671875 L 35.808594 -34.941406 C 34.605469 -43.492188 27.125 -47.230469 19.910156 -47.230469 C 14.496094 -47.230469 8.886719 -45.09375 5.746094 -41.019531 C 4.007812 -38.746094 3.140625 -36.074219 3.140625 -33.269531 C 3.140625 -32.933594 3.207031 -32.535156 3.207031 -32.132812 L 3.207031 -32.199219 C 3.941406 -22.445312 12.492188 -20.84375 19.773438 -20.109375 C 24.449219 -19.640625 29.261719 -19.039062 30.0625 -15.5 C 30.195312 -14.898438 30.261719 -14.363281 30.261719 -13.894531 C 30.261719 -9.085938 24.785156 -6.28125 19.773438 -6.28125 C 15.433594 -6.28125 10.15625 -8.550781 9.6875 -12.894531 L 9.6875 -12.625 L 9.621094 -13.628906 L 2.804688 -13.496094 L 2.871094 -12.226562 C 3.742188 -3.875 12.492188 0.402344 19.707031 0.402344 C 28.125 0.402344 37.078125 -4.808594 37.078125 -13.828125 C 37.078125 -14.765625 36.945312 -15.898438 36.742188 -16.902344 C 34.941406 -24.382812 26.988281 -26.054688 20.578125 -26.855469 C 15.367188 -27.324219 9.953125 -27.992188 9.953125 -33.402344 C 9.953125 -34.738281 10.289062 -36.074219 11.089844 -37.078125 C 13.027344 -39.550781 16.566406 -40.617188 19.773438 -40.617188 C 23.78125 -40.617188 28.191406 -38.816406 29.128906 -34.671875 Z M 29.128906 -34.671875 "/></g></g></g><g fill="#ec5242" fill-opacity="1"><g transform="translate(125.807066, 145.493698)"><g><path d="M 29.128906 -34.671875 L 35.808594 -34.941406 C 34.605469 -43.492188 27.125 -47.230469 19.910156 -47.230469 C 14.496094 -47.230469 8.886719 -45.09375 5.746094 -41.019531 C 4.007812 -38.746094 3.140625 -36.074219 3.140625 -33.269531 C 3.140625 -32.933594 3.207031 -32.535156 3.207031 -32.132812 L 3.207031 -32.199219 C 3.941406 -22.445312 12.492188 -20.84375 19.773438 -20.109375 C 24.449219 -19.640625 29.261719 -19.039062 30.0625 -15.5 C 30.195312 -14.898438 30.261719 -14.363281 30.261719 -13.894531 C 30.261719 -9.085938 24.785156 -6.28125 19.773438 -6.28125 C 15.433594 -6.28125 10.15625 -8.550781 9.6875 -12.894531 L 9.6875 -12.625 L 9.621094 -13.628906 L 2.804688 -13.496094 L 2.871094 -12.226562 C 3.742188 -3.875 12.492188 0.402344 19.707031 0.402344 C 28.125 0.402344 37.078125 -4.808594 37.078125 -13.828125 C 37.078125 -14.765625 36.945312 -15.898438 36.742188 -16.902344 C 34.941406 -24.382812 26.988281 -26.054688 20.578125 -26.855469 C 15.367188 -27.324219 9.953125 -27.992188 9.953125 -33.402344 C 9.953125 -34.738281 10.289062 -36.074219 11.089844 -37.078125 C 13.027344 -39.550781 16.566406 -40.617188 19.773438 -40.617188 C 23.78125 -40.617188 28.191406 -38.816406 29.128906 -34.671875 Z M 29.128906 -34.671875 "/></g></g></g></svg>
