<?xml version="1.0" standalone="no"?>
<!DOCTYPE svg PUBLIC "-//W3C//DTD SVG 20010904//EN"
 "http://www.w3.org/TR/2001/REC-SVG-20010904/DTD/svg10.dtd">
<svg version="1.0" xmlns="http://www.w3.org/2000/svg"
 width="512.000000pt" height="512.000000pt" viewBox="0 0 512.000000 512.000000"
 preserveAspectRatio="xMidYMid meet">
<metadata>
Created by potrace 1.16, written by Peter Selinger 2001-2019
</metadata>
<g transform="translate(0.000000,512.000000) scale(0.100000,-0.100000)"
fill="#fff" stroke="none">
<path d="M640 5100 c-20 -20 -20 -33 -20 -1385 l0 -1366 25 -24 24 -25 1889 0
c1846 0 1890 0 1913 19 l24 19 3 1365 2 1364 -21 27 -20 26 -1900 0 c-1886 0
-1899 0 -1919 -20z m3465 -250 l-120 -120 -1430 0 -1430 0 -101 103 c-55 56
-106 110 -113 120 -13 16 67 17 1650 17 l1664 0 -120 -120z m-3095 -1135 l0
-910 -115 -115 -115 -115 0 1140 0 1140 115 -115 115 -115 0 -910z m3330 -7
l0 -1143 -125 125 -125 124 0 895 0 896 122 122 c68 68 124 123 125 123 2 0 3
-514 3 -1142z m-400 255 c0 -519 -2 -605 -14 -593 -8 8 -158 195 -335 415
-209 260 -333 406 -354 417 -18 10 -43 14 -59 11 -20 -4 -116 -115 -418 -484
-215 -263 -393 -479 -395 -479 -3 0 -131 158 -285 350 l-280 350 -44 0 -43 0
-259 -322 c-143 -177 -264 -329 -271 -337 -10 -13 -12 120 -13 632 l0 647
1385 0 1385 0 0 -607z m-370 -412 l370 -454 0 -123 0 -124 -846 0 c-465 0
-844 4 -842 8 8 20 934 1151 940 1149 4 -1 174 -206 378 -456z m-1563 -116
c134 -168 244 -309 245 -314 2 -5 -44 -67 -102 -139 l-105 -131 -437 0 -438
-1 0 82 0 81 292 364 c161 199 294 363 297 362 4 0 115 -137 248 -304z m2094
-855 l124 -119 -1665 -1 -1665 0 120 120 120 120 1421 0 1421 0 124 -120z"/>
<path d="M2272 4481 c-66 -23 -117 -63 -159 -125 -41 -60 -53 -103 -53 -191 0
-124 73 -235 189 -289 67 -30 197 -30 266 2 59 27 128 91 158 147 19 34 22 56
22 145 0 95 -3 110 -27 156 -74 141 -244 208 -396 155z m173 -150 c115 -52
139 -180 51 -267 -67 -67 -154 -72 -223 -11 -63 55 -79 126 -44 195 24 47 50
70 98 88 51 18 71 17 118 -5z"/>
<path d="M355 2121 c-76 -19 -146 -77 -178 -151 -28 -63 -27 -163 2 -224 25
-50 100 -123 138 -132 l23 -6 0 -782 c0 -773 0 -782 20 -804 31 -33 92 -30
119 4 21 26 21 36 21 557 l0 530 22 -20 c39 -36 172 -118 259 -160 117 -57
270 -109 402 -135 162 -33 443 -32 605 0 219 44 421 128 597 246 l95 65 0
-534 c0 -522 0 -535 20 -555 31 -31 93 -27 119 6 21 26 21 36 21 556 l0 529
53 -39 c175 -128 405 -229 626 -273 53 -11 161 -22 241 -25 350 -15 680 77
965 270 l95 65 0 -534 c0 -522 0 -535 20 -555 28 -28 90 -27 116 1 18 20 19
50 22 804 l2 783 29 10 c43 15 107 77 132 129 29 60 30 160 2 223 -45 101
-166 170 -276 157 -142 -17 -249 -151 -234 -294 10 -96 88 -200 164 -219 23
-6 23 -8 23 -149 l0 -143 -52 -47 c-221 -195 -530 -322 -833 -343 -380 -26
-732 88 -1027 333 l-68 55 0 144 0 144 26 6 c14 4 49 30 79 59 41 40 57 65 69
106 20 68 20 94 1 158 -21 71 -63 123 -126 158 -46 25 -65 29 -129 30 -65 0
-82 -4 -129 -30 -63 -35 -105 -88 -126 -158 -19 -64 -19 -91 1 -156 18 -63 88
-144 140 -163 l34 -12 0 -142 0 -142 -62 -53 c-205 -171 -450 -284 -706 -325
-121 -19 -342 -19 -457 1 -255 44 -519 168 -702 330 l-53 47 0 143 c0 140 0
143 23 149 38 9 104 73 131 128 35 70 36 161 2 233 -53 114 -180 175 -301 146z
m142 -185 c43 -50 42 -108 -2 -151 -46 -47 -107 -45 -156 5 -43 43 -41 100 6
147 33 33 39 35 82 30 35 -4 53 -12 70 -31z m2113 19 c32 -17 60 -61 60 -95 0
-34 -31 -78 -66 -95 -40 -19 -58 -19 -94 0 -40 21 -60 53 -60 98 0 31 7 46 34
73 38 38 77 44 126 19z m2141 -2 c37 -22 62 -75 54 -112 -3 -16 -20 -41 -36
-57 -24 -23 -39 -29 -75 -29 -39 0 -50 5 -75 33 -43 47 -41 102 5 148 39 39
80 45 127 17z"/>
</g>
</svg>
