<?xml version="1.0" standalone="no"?>
<!DOCTYPE svg PUBLIC "-//W3C//DTD SVG 20010904//EN"
 "http://www.w3.org/TR/2001/REC-SVG-20010904/DTD/svg10.dtd">
<svg version="1.0" xmlns="http://www.w3.org/2000/svg"
 width="512.000000pt" height="512.000000pt" viewBox="0 0 512.000000 512.000000"
 preserveAspectRatio="xMidYMid meet">
<metadata>
Created by potrace 1.16, written by Peter Selinger 2001-2019
</metadata>
<g transform="translate(0.000000,512.000000) scale(0.100000,-0.100000)"
fill="#fff" stroke="none">
<path d="M353 4269 c-75 -29 -153 -104 -189 -181 l-29 -63 -3 -803 c-2 -523 1
-823 8 -860 21 -117 93 -211 198 -260 52 -24 71 -27 205 -30 l147 -4 0 -254
c0 -241 1 -255 20 -274 12 -12 33 -20 53 -20 29 0 60 28 307 275 l275 275 292
0 291 0 4 -212 c3 -206 4 -215 29 -269 36 -76 86 -129 161 -170 l63 -34 795
-3 796 -3 274 -274 c258 -258 277 -275 311 -275 68 0 69 5 69 292 l0 256 148
4 c136 3 151 5 207 31 76 35 146 109 177 185 l23 57 3 800 c3 836 2 877 -40
958 -30 60 -92 120 -155 153 l-58 29 -772 3 -771 2 -4 213 c-3 209 -3 213 -32
274 -37 81 -112 152 -189 181 l-58 22 -1252 -1 c-1230 0 -1253 0 -1304 -20z
m2577 -149 c24 -14 58 -45 75 -68 l30 -44 3 -801 c2 -561 0 -813 -8 -840 -14
-49 -65 -106 -115 -128 -38 -17 -88 -19 -834 -19 l-795 0 -223 -222 -223 -222
0 180 c0 187 -8 237 -40 254 -10 6 -94 10 -187 10 -141 0 -174 3 -208 19 -51
23 -101 79 -114 128 -7 25 -11 306 -11 824 l0 785 28 54 c15 30 39 62 53 73
66 48 24 46 1314 44 l1210 -2 45 -25z m1801 -693 c29 -16 54 -40 74 -72 l30
-48 3 -794 c2 -544 -1 -807 -8 -834 -6 -22 -27 -57 -46 -79 -58 -64 -80 -70
-268 -70 -182 0 -209 -6 -226 -53 -5 -17 -10 -110 -10 -211 l0 -181 -220 220
-220 220 -813 5 -814 5 -41 29 c-26 18 -51 47 -67 79 -24 49 -25 58 -25 238
l0 188 423 3 422 3 58 27 c75 36 149 112 179 185 23 58 23 59 26 611 l3 552
748 0 748 0 44 -23z"/>
<path d="M480 3665 l0 -75 1180 0 1180 0 0 75 0 75 -1180 0 -1180 0 0 -75z"/>
<path d="M480 3185 l0 -75 1180 0 1180 0 0 75 0 75 -1180 0 -1180 0 0 -75z"/>
<path d="M480 2695 l0 -75 1180 0 1180 0 0 75 0 75 -1180 0 -1180 0 0 -75z"/>
</g>
</svg>
