<?xml version="1.0" standalone="no"?>
<!DOCTYPE svg PUBLIC "-//W3C//DTD SVG 20010904//EN"
 "http://www.w3.org/TR/2001/REC-SVG-20010904/DTD/svg10.dtd">
<svg version="1.0" xmlns="http://www.w3.org/2000/svg"
 width="512.000000pt" height="512.000000pt" viewBox="0 0 512.000000 512.000000"
 preserveAspectRatio="xMidYMid meet">
<metadata>
Created by potrace 1.16, written by Peter Selinger 2001-2019
</metadata>
<g transform="translate(0.000000,512.000000) scale(0.100000,-0.100000)"
fill="#fff" stroke="none">
<path d="M2417 5096 c-160 -67 -248 -187 -255 -351 l-4 -80 -606 -353 c-390
-228 -611 -351 -619 -345 -136 97 -190 116 -311 111 -72 -3 -98 -8 -154 -35
-37 -17 -88 -52 -113 -78 -135 -135 -154 -361 -43 -523 38 -55 126 -121 191
-142 l52 -17 0 -723 0 -723 -52 -17 c-65 -21 -153 -87 -191 -142 -82 -120 -96
-282 -35 -410 40 -85 106 -151 191 -191 56 -27 82 -32 154 -35 121 -5 175 14
311 111 8 6 229 -117 619 -345 l606 -353 4 -80 c6 -149 90 -274 226 -338 62
-30 75 -32 172 -32 97 0 110 2 172 32 136 64 220 189 226 338 l4 80 606 353
c390 228 611 351 619 345 136 -97 190 -116 311 -111 72 3 98 8 154 35 37 17
88 52 113 78 135 135 154 361 43 523 -38 55 -126 121 -191 142 l-52 17 0 723
0 723 52 17 c65 21 153 87 191 142 82 120 96 282 35 410 -40 85 -106 151 -191
191 -56 27 -82 32 -154 35 -121 5 -175 -14 -311 -111 -8 -6 -229 117 -619 345
l-606 353 -4 80 c-6 149 -90 274 -226 338 -58 28 -79 32 -162 35 -82 2 -103
-1 -153 -22z m238 -165 c149 -68 182 -266 64 -378 -147 -139 -389 -36 -389
167 0 131 99 230 230 230 32 0 72 -8 95 -19z m-375 -512 c0 -7 -677 -1168
-689 -1182 -4 -4 -131 64 -281 152 l-273 159 0 132 0 131 589 344 589 344 32
-37 c18 -20 32 -40 33 -43z m1245 -282 l560 -326 -1 -132 -1 -131 -273 -159
c-151 -88 -277 -156 -281 -152 -3 5 -156 265 -340 578 -183 314 -337 577 -342
586 -8 12 -2 26 23 58 l33 41 31 -18 c17 -10 283 -165 591 -345z m-1050 -496
l0 -683 -55 -21 c-46 -17 -85 -39 -154 -90 -7 -6 -101 43 -256 133 -135 79
-251 148 -258 155 -11 9 53 124 329 596 188 321 343 588 346 592 3 5 15 7 26
5 l22 -3 0 -684z m561 95 c279 -476 343 -592 332 -601 -7 -7 -123 -76 -258
-155 -155 -90 -249 -139 -256 -133 -69 51 -108 73 -154 90 l-55 21 -3 673 c-1
371 0 680 3 687 3 7 14 12 26 10 16 -2 103 -143 365 -592z m-2308 158 c153
-63 191 -267 71 -381 -45 -43 -97 -63 -161 -63 -245 1 -317 339 -93 441 49 23
133 24 183 3z m3847 -3 c84 -38 135 -117 135 -211 0 -130 -99 -229 -228 -230
-204 -1 -309 241 -169 389 66 69 177 91 262 52z m-3351 -652 c180 -104 274
-165 269 -172 -4 -7 -168 -286 -364 -622 -310 -528 -361 -610 -381 -610 l-23
0 0 724 0 724 57 20 c32 12 79 38 105 58 27 21 51 38 55 38 4 1 131 -71 282
-160z m3008 121 c29 -22 78 -48 108 -58 l55 -19 0 -724 0 -724 -23 0 c-20 0
-72 82 -383 615 -199 338 -361 618 -362 623 -2 7 529 324 545 326 4 1 31 -17
60 -39z m-2324 -520 l257 -149 -1 -131 -1 -132 -608 -354 c-339 -198 -614
-353 -622 -350 -8 3 -13 12 -11 19 3 15 721 1246 726 1247 2 0 119 -67 260
-150z m1927 -467 c198 -339 361 -622 363 -630 2 -7 -3 -16 -11 -19 -8 -3 -283
152 -622 350 l-608 354 0 132 0 132 254 148 c140 82 256 149 259 149 3 0 167
-277 365 -616z m-1187 401 c85 -35 142 -120 142 -214 0 -129 -101 -230 -230
-230 -202 0 -306 242 -167 389 64 67 171 90 255 55z m-339 -531 c28 -21 76
-47 108 -59 l58 -22 3 -321 2 -321 -722 2 -723 3 0 23 c0 19 86 73 605 376
333 195 608 355 612 355 4 1 30 -16 57 -36z m1171 -319 c526 -307 611 -360
608 -378 l-3 -21 -723 -3 -722 -2 2 321 3 322 57 20 c32 12 79 38 105 58 27
21 51 38 55 38 3 1 282 -159 618 -355z m-2752 -270 c153 -63 191 -267 71 -381
-45 -43 -97 -63 -161 -63 -245 1 -317 339 -93 441 49 23 133 24 183 3z m3847
-3 c84 -38 135 -117 135 -211 0 -130 -99 -229 -228 -230 -204 -1 -309 241
-169 389 66 69 177 91 262 52z m-2097 -573 l-3 -281 -45 -16 c-73 -26 -111
-51 -165 -107 l-51 -52 -589 344 c-325 189 -591 348 -593 354 -2 6 -1 17 2 25
5 13 102 15 726 15 l720 0 -2 -282z m1607 254 c0 -19 -84 -71 -590 -366 l-589
-344 -51 52 c-54 56 -92 81 -165 107 l-45 16 -3 281 -2 282 722 -2 723 -3 0
-23z m-1430 -721 c84 -38 135 -117 135 -211 0 -131 -99 -230 -230 -230 -247 0
-320 338 -95 441 52 24 138 24 190 0z"/>
</g>
</svg>
