<?xml version="1.0" standalone="no"?>
<!DOCTYPE svg PUBLIC "-//W3C//DTD SVG 20010904//EN"
 "http://www.w3.org/TR/2001/REC-SVG-20010904/DTD/svg10.dtd">
<svg version="1.0" xmlns="http://www.w3.org/2000/svg"
 width="512.000000pt" height="512.000000pt" viewBox="0 0 512.000000 512.000000"
 preserveAspectRatio="xMidYMid meet">
<metadata>
Created by potrace 1.16, written by Peter Selinger 2001-2019
</metadata>
<g transform="translate(0.000000,512.000000) scale(0.100000,-0.100000)"
stroke="none" fill="#fff">
<path d="M2361 5100 c-258 -68 -466 -271 -542 -530 -17 -60 -22 -110 -26 -250
-5 -167 -7 -177 -32 -220 -22 -38 -26 -57 -26 -125 0 -67 4 -88 26 -130 31
-58 103 -118 164 -135 42 -12 43 -13 69 -93 30 -90 96 -197 156 -251 39 -35
40 -37 40 -104 l0 -69 -357 -138 c-396 -152 -460 -186 -544 -287 -54 -65 -71
-95 -102 -177 -20 -53 -21 -79 -25 -463 l-3 -408 -175 0 -174 0 0 473 0 472
173 226 c148 194 176 225 192 218 11 -4 43 -8 72 -8 248 -4 374 295 201 476
-101 106 -311 101 -404 -10 -71 -84 -90 -209 -45 -305 l24 -52 -44 -57 c-25
-32 -109 -142 -187 -245 l-142 -188 0 -500 0 -500 -82 0 c-105 0 -152 -23
-185 -90 -22 -42 -23 -56 -23 -271 0 -136 4 -239 11 -256 17 -45 70 -93 116
-105 l43 -10 0 -442 c0 -422 1 -442 20 -474 11 -18 34 -41 52 -52 32 -19 53
-20 926 -20 879 0 892 0 912 20 27 27 27 83 0 110 -20 20 -33 20 -885 20
l-865 0 0 420 0 420 1870 0 1870 0 0 -420 0 -420 -865 0 c-852 0 -865 0 -885
-20 -27 -27 -27 -83 0 -110 20 -20 33 -20 913 -20 872 0 893 1 925 20 18 11
41 34 52 52 19 32 20 52 20 474 l0 442 43 10 c46 12 99 60 116 105 7 17 11
120 11 256 0 215 -1 229 -22 271 -34 67 -81 90 -185 90 l-83 0 0 500 0 500
-142 188 c-78 103 -162 213 -186 244 l-45 57 23 48 c18 36 24 66 24 118 1 162
-113 278 -274 279 -150 1 -267 -107 -278 -255 -12 -162 119 -300 281 -298 29
0 61 4 72 8 16 7 44 -24 192 -218 l173 -226 0 -472 0 -473 -175 0 -175 0 0
119 c0 105 -2 121 -21 145 -27 35 -86 36 -117 3 -20 -21 -22 -34 -22 -145 l0
-122 -160 0 -160 0 0 310 c0 297 -1 311 -20 330 -21 21 -69 26 -100 10 -35
-19 -40 -64 -40 -361 l0 -289 -220 0 c-121 0 -220 1 -220 3 0 1 -29 172 -65
380 -60 352 -63 381 -49 403 15 22 18 23 44 9 39 -20 79 -19 117 5 26 16 51
56 129 212 53 106 98 194 99 196 4 4 388 -144 430 -165 91 -46 174 -150 200
-249 9 -33 15 -101 15 -159 0 -88 3 -104 20 -123 31 -33 92 -30 120 6 21 25
22 34 17 162 -5 145 -21 209 -73 298 -37 63 -139 162 -204 196 -30 17 -212 91
-405 166 l-350 136 -3 70 -3 71 38 33 c76 66 156 202 169 286 5 38 10 44 38
50 97 20 185 110 206 211 15 68 6 128 -26 188 -21 41 -24 59 -24 153 0 214
-34 363 -111 495 -103 174 -293 311 -486 352 -98 21 -271 18 -362 -5z m339
-155 c205 -54 374 -220 434 -425 16 -55 34 -280 23 -280 -4 0 -13 15 -20 33
-18 41 -178 216 -220 240 -48 27 -100 17 -193 -37 -159 -92 -365 -148 -549
-148 -116 0 -163 -15 -189 -58 -9 -17 -21 -30 -27 -30 -14 0 -10 167 6 245 25
117 76 208 169 300 86 85 153 125 261 156 76 22 230 24 305 4z m214 -652 l66
-68 0 -247 c0 -211 -3 -255 -18 -305 -49 -156 -176 -265 -342 -295 -177 -31
-375 73 -452 239 -38 80 -47 154 -48 376 l0 177 94 0 c198 0 434 71 632 189 1
1 32 -29 68 -66z m-1619 -807 c39 -16 75 -68 75 -106 0 -37 -35 -88 -75 -107
-65 -31 -146 15 -161 94 -7 38 24 92 67 115 41 22 50 22 94 4z m2639 -11 c33
-22 59 -80 51 -113 -11 -45 -44 -81 -86 -93 -33 -10 -45 -10 -74 4 -40 19 -75
70 -75 107 0 37 36 89 73 106 36 16 75 12 111 -11z m-1266 -425 c-57 -71 -106
-128 -109 -127 -4 1 -52 58 -108 127 -83 103 -101 131 -101 159 0 30 2 33 23
27 104 -29 255 -30 347 -2 l45 13 3 -34 c3 -31 -8 -49 -100 -163z m-332 -117
c48 -60 91 -113 96 -119 6 -8 -20 -32 -77 -73 l-85 -61 -76 151 c-41 84 -72
155 -67 160 8 8 102 47 115 48 4 1 46 -47 94 -106z m622 76 c23 -10 42 -21 42
-24 0 -3 -34 -73 -75 -155 l-75 -150 -85 61 c-52 37 -82 65 -78 72 6 11 42 56
141 175 48 57 45 57 130 21z m-895 -274 c79 -159 103 -199 130 -215 38 -24 77
-25 116 -6 26 14 28 13 43 -12 15 -25 12 -49 -43 -372 -32 -190 -61 -360 -64
-377 l-6 -33 -219 0 -220 0 0 289 c0 297 -5 342 -40 361 -31 16 -79 11 -100
-10 -19 -19 -20 -33 -20 -330 l0 -310 -160 0 -160 0 0 368 c0 293 3 379 15
425 24 93 93 188 170 233 40 23 427 181 450 183 6 1 54 -87 108 -194z m537
-322 c0 -5 27 -162 59 -350 l58 -343 -157 0 -157 0 43 258 c24 141 50 299 59
350 l17 92 39 0 c21 0 39 -3 39 -7z m1998 -1055 l-3 -203 -2035 0 -2035 0 -3
203 -2 202 2040 0 2040 0 -2 -202z"/>
</g>
</svg>
