<?xml version="1.0" standalone="no"?>
<!DOCTYPE svg PUBLIC "-//W3C//DTD SVG 20010904//EN"
 "http://www.w3.org/TR/2001/REC-SVG-20010904/DTD/svg10.dtd">
<svg version="1.0" xmlns="http://www.w3.org/2000/svg"
 width="512.000000pt" height="512.000000pt" viewBox="0 0 512.000000 512.000000"
 preserveAspectRatio="xMidYMid meet">
<metadata>
Created by potrace 1.16, written by Peter Selinger 2001-2019
</metadata>
<g transform="translate(0.000000,512.000000) scale(0.100000,-0.100000)"
fill="#fff" stroke="none">
<path d="M260 5020 c-20 -20 -20 -33 -20 -1260 0 -1227 0 -1240 20 -1260 20
-20 33 -20 2300 -20 2267 0 2280 0 2300 20 20 20 20 33 20 1260 0 1227 0 1240
-20 1260 -20 20 -33 20 -2300 20 -2267 0 -2280 0 -2300 -20z m4460 -1260 l0
-1120 -2160 0 -2160 0 0 1120 0 1120 2160 0 2160 0 0 -1120z"/>
<path d="M3760 4640 l0 -80 80 0 80 0 0 80 0 80 -80 0 -80 0 0 -80z"/>
<path d="M3325 4560 l-59 -60 54 -55 c30 -30 59 -55 65 -55 13 0 115 102 115
116 0 10 -101 114 -111 114 -2 0 -31 -27 -64 -60z"/>
<path d="M4227 4562 l-57 -58 58 -57 c32 -31 62 -57 68 -57 5 0 34 25 64 55
l54 55 -59 60 c-33 33 -62 60 -65 60 -3 0 -31 -26 -63 -58z"/>
<path d="M3688 4461 c-72 -23 -120 -53 -186 -115 -198 -186 -194 -518 9 -700
l49 -44 0 -114 c0 -128 14 -170 71 -225 53 -50 95 -63 209 -63 114 0 156 13
209 63 57 54 71 97 71 224 l0 111 60 61 c89 88 131 183 138 305 2 51 -1 115
-7 145 -34 161 -164 303 -322 352 -80 25 -222 25 -301 0z m291 -180 c103 -53
161 -141 169 -257 8 -122 -30 -199 -137 -284 -49 -39 -51 -42 -51 -90 l0 -50
-119 0 -120 0 -3 52 c-3 50 -5 54 -56 92 -156 120 -180 324 -54 467 87 99 252
130 371 70z"/>
<path d="M1061 4294 c-17 -22 -21 -41 -21 -104 l0 -78 -36 -21 -36 -22 -63 36
c-75 42 -122 46 -152 13 -11 -13 -57 -86 -102 -164 -111 -193 -110 -214 22
-284 45 -24 47 -27 47 -70 0 -43 -2 -46 -47 -70 -132 -70 -133 -91 -22 -284
45 -78 91 -151 102 -163 31 -35 80 -30 150 13 l59 37 37 -21 36 -21 5 -84 c8
-131 0 -127 245 -127 245 0 237 -4 245 127 5 84 5 84 41 104 l35 21 60 -36
c62 -38 117 -47 146 -23 9 6 55 79 102 162 86 149 101 196 77 234 -5 7 -37 30
-72 50 -63 37 -64 38 -64 81 0 43 1 44 64 81 35 20 67 43 72 50 24 38 9 85
-77 234 -47 83 -93 156 -102 163 -29 22 -81 14 -144 -24 l-60 -37 -37 21 -36
21 -5 84 c-8 131 0 127 -246 127 l-203 0 -20 -26z m302 -194 c6 -75 29 -107
109 -155 81 -49 154 -58 215 -26 l41 20 36 -60 c20 -33 36 -62 36 -64 0 -2
-25 -18 -54 -35 -30 -17 -58 -41 -62 -53 -11 -33 -11 -228 0 -255 5 -12 33
-36 63 -53 29 -17 53 -32 53 -34 0 -2 -16 -31 -36 -64 l-36 -60 -41 20 c-61
32 -134 23 -215 -26 -80 -48 -103 -80 -109 -155 l-6 -60 -72 0 -73 0 -4 60
c-5 76 -25 103 -114 157 -58 36 -78 43 -122 43 -33 0 -67 -7 -92 -20 l-39 -20
-12 22 c-6 13 -23 42 -36 64 l-24 42 55 30 c30 17 58 37 62 44 12 18 13 249 2
271 -5 9 -34 31 -64 48 l-55 31 24 42 c13 22 30 51 36 64 l12 22 39 -20 c25
-13 59 -20 92 -20 44 0 64 7 122 43 89 54 109 81 114 157 l4 60 73 0 72 0 6
-60z"/>
<path d="M1200 3917 c-178 -50 -276 -244 -216 -424 22 -66 92 -145 160 -181
45 -24 62 -27 146 -27 84 0 101 3 146 27 28 15 72 50 97 78 139 155 90 414
-97 505 -64 31 -169 41 -236 22z m154 -177 c86 -42 114 -142 63 -219 -46 -70
-129 -89 -201 -48 -109 61 -104 217 8 268 53 24 80 24 130 -1z"/>
<path d="M3120 4080 l0 -80 80 0 80 0 0 80 0 80 -80 0 -80 0 0 -80z"/>
<path d="M4400 4080 l0 -80 80 0 80 0 0 80 0 80 -80 0 -80 0 0 -80z"/>
<path d="M2160 3600 l0 -80 80 0 80 0 0 80 0 80 -80 0 -80 0 0 -80z"/>
<path d="M2480 3600 l0 -80 80 0 80 0 0 80 0 80 -80 0 -80 0 0 -80z"/>
<path d="M2800 3600 l0 -80 80 0 80 0 0 80 0 80 -80 0 -80 0 0 -80z"/>
<path d="M2800 3280 l0 -80 80 0 80 0 0 80 0 80 -80 0 -80 0 0 -80z"/>
<path d="M2800 2960 l0 -80 80 0 80 0 0 80 0 80 -80 0 -80 0 0 -80z"/>
<path d="M3120 2960 l0 -80 80 0 80 0 0 80 0 80 -80 0 -80 0 0 -80z"/>
<path d="M3440 2960 l0 -80 80 0 80 0 0 80 0 80 -80 0 -80 0 0 -80z"/>
<path d="M3760 2960 l0 -80 80 0 80 0 0 80 0 80 -80 0 -80 0 0 -80z"/>
<path d="M2072 2300 c-18 -11 -41 -34 -52 -52 -19 -31 -20 -51 -20 -328 0
-277 1 -297 20 -328 29 -48 75 -72 138 -72 28 0 52 -3 52 -7 0 -5 -11 -51 -25
-103 -42 -160 -29 -210 54 -210 35 0 58 15 239 160 l200 160 88 0 c101 0 140
16 174 72 19 31 20 51 20 328 0 277 -1 297 -20 328 -11 18 -34 41 -52 52 -31
19 -51 20 -408 20 -357 0 -377 -1 -408 -20z m728 -380 l0 -240 -99 0 -99 0
-106 -85 -105 -85 6 64 c5 56 3 66 -16 85 -19 19 -32 21 -121 21 l-100 0 0
240 0 240 320 0 320 0 0 -240z"/>
<path d="M3192 2300 c-18 -11 -41 -34 -52 -52 -19 -31 -20 -51 -20 -328 0
-277 1 -297 20 -328 34 -56 73 -72 174 -72 l88 0 200 -160 c181 -145 204 -160
239 -160 83 0 96 50 54 210 -14 52 -25 98 -25 103 0 4 24 7 53 7 62 0 108 24
137 72 19 31 20 51 20 328 0 277 -1 297 -20 328 -11 18 -34 41 -52 52 -31 19
-51 20 -408 20 -357 0 -377 -1 -408 -20z m728 -380 l0 -240 -100 0 c-89 0
-102 -2 -121 -21 -19 -19 -21 -30 -16 -80 3 -33 3 -59 1 -59 -3 0 -50 36 -106
80 l-101 80 -98 0 -99 0 0 240 0 240 320 0 320 0 0 -240z"/>
<path d="M500 1578 c-77 -30 -169 -123 -198 -201 -39 -104 -27 -250 27 -326
l20 -28 -51 -24 c-70 -32 -148 -111 -184 -184 l-29 -60 -3 -317 c-3 -308 -2
-318 17 -337 21 -21 26 -21 1021 -21 995 0 1000 0 1021 21 19 19 20 29 17 337
l-3 317 -29 58 c-36 74 -116 155 -183 186 l-52 24 21 29 c52 74 64 224 26 325
-29 80 -121 172 -201 201 -79 30 -195 30 -274 0 -80 -29 -172 -121 -201 -201
-39 -104 -27 -250 27 -326 l20 -28 -50 -24 c-28 -13 -71 -42 -95 -64 l-44 -41
-44 41 c-24 22 -67 51 -95 64 l-50 24 21 29 c52 74 64 224 26 325 -29 80 -121
172 -201 201 -78 30 -200 29 -277 0z m236 -173 c130 -76 125 -268 -8 -336
-162 -83 -342 97 -259 259 50 98 172 133 267 77z m960 0 c130 -76 125 -268 -8
-336 -162 -83 -342 97 -259 259 50 98 172 133 267 77z m-806 -552 c54 -25 103
-74 127 -128 14 -33 18 -78 21 -262 l4 -223 -402 0 -402 0 4 223 c4 245 10
272 71 335 68 71 115 82 352 79 158 -3 185 -5 225 -24z m960 0 c54 -25 103
-74 127 -128 14 -33 18 -78 21 -262 l4 -223 -402 0 -402 0 4 223 c4 245 10
272 71 335 68 71 115 82 352 79 158 -3 185 -5 225 -24z"/>
<path d="M4340 1578 c-77 -30 -169 -123 -198 -201 -39 -104 -27 -250 27 -326
l20 -28 -51 -24 c-70 -32 -148 -111 -184 -184 l-29 -60 -3 -317 c-3 -308 -2
-318 17 -337 21 -21 30 -21 541 -21 511 0 520 0 541 21 19 19 20 29 17 337
l-3 317 -29 58 c-36 74 -116 155 -183 186 l-52 24 21 29 c52 74 64 224 26 325
-29 80 -121 172 -201 201 -78 30 -200 29 -277 0z m236 -173 c130 -76 125 -268
-8 -336 -162 -83 -342 97 -259 259 50 98 172 133 267 77z m154 -552 c54 -25
103 -74 127 -128 14 -33 18 -78 21 -262 l4 -223 -402 0 -402 0 4 223 c4 245
10 272 71 335 68 71 115 82 352 79 158 -3 185 -5 225 -24z"/>
</g>
</svg>
